<?xml version="1.0" encoding="UTF-8" standalone="no"?>
<!DOCTYPE svg PUBLIC "-//W3C//DTD SVG 1.1//EN"
 "http://www.w3.org/Graphics/SVG/1.1/DTD/svg11.dtd">
<!-- Generated by graphviz version 2.43.0 (0)
 -->
<!-- Title: FullFlow Pages: 1 -->
<svg width="4905pt" height="99pt"
 viewBox="0.00 0.00 4905.00 99.00" xmlns="http://www.w3.org/2000/svg" xmlns:xlink="http://www.w3.org/1999/xlink">
<g id="graph0" class="graph" transform="scale(1 1) rotate(0) translate(4 95)">
<title>FullFlow</title>
<polygon fill="white" stroke="transparent" points="-4,4 -4,-95 4901,-95 4901,4 -4,4"/>
<g id="clust1" class="cluster">
<title>cluster_0</title>
<polygon fill="lightblue" stroke="lightblue" points="8,-8 8,-83 1066,-83 1066,-8 8,-8"/>
<text text-anchor="middle" x="537" y="-67.8" font-family="Times,serif" font-size="14.00">1. CreditCardCrawling.py</text>
</g>
<g id="clust2" class="cluster">
<title>cluster_1</title>
<polygon fill="lightgreen" stroke="lightgreen" points="1228,-8 1228,-83 2190,-83 2190,-8 1228,-8"/>
<text text-anchor="middle" x="1709" y="-67.8" font-family="Times,serif" font-size="14.00">2. EmbeddingCardInfo.py</text>
</g>
<g id="clust3" class="cluster">
<title>cluster_2</title>
<polygon fill="khaki" stroke="khaki" points="2312,-8 2312,-83 3523,-83 3523,-8 2312,-8"/>
<text text-anchor="middle" x="2917.5" y="-67.8" font-family="Times,serif" font-size="14.00">3. RecommendCard.py</text>
</g>
<g id="clust4" class="cluster">
<title>cluster_3</title>
<polygon fill="lightcoral" stroke="lightcoral" points="3638,-8 3638,-83 4889,-83 4889,-8 3638,-8"/>
<text text-anchor="middle" x="4263.5" y="-67.8" font-family="Times,serif" font-size="14.00">4. RAG_Evaluation.py</text>
</g>
<!-- A1 -->
<g id="node1" class="node">
<title>A1</title>
<polygon fill="lightyellow" stroke="lightyellow" points="132,-52 16,-52 16,-16 132,-16 132,-52"/>
<text text-anchor="middle" x="74" y="-30.3" font-family="Noto Sans" font-size="14.00">save_all_cards</text>
</g>
<!-- A2 -->
<g id="node2" class="node">
<title>A2</title>
<polygon fill="lightyellow" stroke="lightyellow" points="278,-52 169,-52 169,-16 278,-16 278,-52"/>
<text text-anchor="middle" x="223.5" y="-30.3" font-family="Noto Sans" font-size="14.00">get_card_info</text>
</g>
<!-- A1&#45;&gt;A2 -->
<g id="edge1" class="edge">
<title>A1&#45;&gt;A2</title>
<path fill="none" stroke="black" d="M132.03,-34C140.65,-34 149.6,-34 158.36,-34"/>
<polygon fill="black" stroke="black" points="158.53,-37.5 168.53,-34 158.53,-30.5 158.53,-37.5"/>
</g>
<!-- A3 -->
<g id="node3" class="node">
<title>A3</title>
<polygon fill="lightyellow" stroke="lightyellow" points="439,-52 315,-52 315,-16 439,-16 439,-52"/>
<text text-anchor="middle" x="377" y="-30.3" font-family="Noto Sans" font-size="14.00">load_card_page</text>
</g>
<!-- A2&#45;&gt;A3 -->
<g id="edge2" class="edge">
<title>A2&#45;&gt;A3</title>
<path fill="none" stroke="black" d="M278.34,-34C286.93,-34 295.93,-34 304.85,-34"/>
<polygon fill="black" stroke="black" points="304.85,-37.5 314.85,-34 304.85,-30.5 304.85,-37.5"/>
</g>
<!-- A4 -->
<g id="node4" class="node">
<title>A4</title>
<polygon fill="lightyellow" stroke="lightyellow" points="628,-52 476,-52 476,-16 628,-16 628,-52"/>
<text text-anchor="middle" x="552" y="-30.3" font-family="Noto Sans" font-size="14.00">expand_dl_sections</text>
</g>
<!-- A3&#45;&gt;A4 -->
<g id="edge3" class="edge">
<title>A3&#45;&gt;A4</title>
<path fill="none" stroke="black" d="M439.48,-34C447.93,-34 456.72,-34 465.5,-34"/>
<polygon fill="black" stroke="black" points="465.78,-37.5 475.78,-34 465.78,-30.5 465.78,-37.5"/>
</g>
<!-- A5 -->
<g id="node5" class="node">
<title>A5</title>
<polygon fill="lightyellow" stroke="lightyellow" points="800,-52 665,-52 665,-16 800,-16 800,-52"/>
<text text-anchor="middle" x="732.5" y="-30.3" font-family="Noto Sans" font-size="14.00">extract_card_info</text>
</g>
<!-- A4&#45;&gt;A5 -->
<g id="edge4" class="edge">
<title>A4&#45;&gt;A5</title>
<path fill="none" stroke="black" d="M628.18,-34C636.95,-34 645.9,-34 654.69,-34"/>
<polygon fill="black" stroke="black" points="654.91,-37.5 664.91,-34 654.91,-30.5 654.91,-37.5"/>
</g>
<!-- A6 -->
<g id="node6" class="node">
<title>A6</title>
<polygon fill="lightyellow" stroke="lightyellow" points="1058,-52 837,-52 837,-16 1058,-16 1058,-52"/>
<text text-anchor="middle" x="947.5" y="-30.3" font-family="Noto Sans" font-size="14.00">save_card_json (→ JSON 저장)</text>
</g>
<!-- A5&#45;&gt;A6 -->
<g id="edge5" class="edge">
<title>A5&#45;&gt;A6</title>
<path fill="none" stroke="black" d="M800.02,-34C808.53,-34 817.45,-34 826.49,-34"/>
<polygon fill="black" stroke="black" points="826.74,-37.5 836.74,-34 826.74,-30.5 826.74,-37.5"/>
</g>
<!-- B1 -->
<g id="node7" class="node">
<title>B1</title>
<polygon fill="lightyellow" stroke="lightyellow" points="1290,-52 1236,-52 1236,-16 1290,-16 1290,-52"/>
<text text-anchor="middle" x="1263" y="-30.3" font-family="Noto Sans" font-size="14.00">run</text>
</g>
<!-- A6&#45;&gt;B1 -->
<g id="edge20" class="edge">
<title>A6&#45;&gt;B1</title>
<path fill="none" stroke="black" stroke-dasharray="5,2" d="M1058.15,-34C1116.66,-34 1184.83,-34 1225.64,-34"/>
<polygon fill="black" stroke="black" points="1225.9,-37.5 1235.9,-34 1225.9,-30.5 1225.9,-37.5"/>
<text text-anchor="middle" x="1147" y="-37.8" font-family="Times,serif" font-size="14.00">JSON → Embedding</text>
</g>
<!-- B2 -->
<g id="node8" class="node">
<title>B2</title>
<polygon fill="lightyellow" stroke="lightyellow" points="1458,-52 1327,-52 1327,-16 1458,-16 1458,-52"/>
<text text-anchor="middle" x="1392.5" y="-30.3" font-family="Noto Sans" font-size="14.00">collect_json_files</text>
</g>
<!-- B1&#45;&gt;B2 -->
<g id="edge6" class="edge">
<title>B1&#45;&gt;B2</title>
<path fill="none" stroke="black" d="M1290.11,-34C1298.11,-34 1307.35,-34 1316.92,-34"/>
<polygon fill="black" stroke="black" points="1316.98,-37.5 1326.98,-34 1316.98,-30.5 1316.98,-37.5"/>
</g>
<!-- B3 -->
<g id="node9" class="node">
<title>B3</title>
<polygon fill="lightyellow" stroke="lightyellow" points="1635,-52 1495,-52 1495,-16 1635,-16 1635,-52"/>
<text text-anchor="middle" x="1565" y="-30.3" font-family="Noto Sans" font-size="14.00">process_json_files</text>
</g>
<!-- B2&#45;&gt;B3 -->
<g id="edge7" class="edge">
<title>B2&#45;&gt;B3</title>
<path fill="none" stroke="black" d="M1458.45,-34C1467.04,-34 1475.92,-34 1484.71,-34"/>
<polygon fill="black" stroke="black" points="1484.98,-37.5 1494.98,-34 1484.98,-30.5 1484.98,-37.5"/>
</g>
<!-- B4 -->
<g id="node10" class="node">
<title>B4</title>
<polygon fill="lightyellow" stroke="lightyellow" points="1884,-52 1672,-52 1672,-16 1884,-16 1884,-52"/>
<text text-anchor="middle" x="1778" y="-30.3" font-family="Noto Sans" font-size="14.00">create_document_from_card</text>
</g>
<!-- B3&#45;&gt;B4 -->
<g id="edge8" class="edge">
<title>B3&#45;&gt;B4</title>
<path fill="none" stroke="black" d="M1635.09,-34C1643.65,-34 1652.57,-34 1661.59,-34"/>
<polygon fill="black" stroke="black" points="1661.8,-37.5 1671.8,-34 1661.8,-30.5 1661.8,-37.5"/>
</g>
<!-- B5 -->
<g id="node11" class="node">
<title>B5</title>
<polygon fill="lightyellow" stroke="lightyellow" points="2182,-52 1921,-52 1921,-16 2182,-16 2182,-52"/>
<text text-anchor="middle" x="2051.5" y="-30.3" font-family="Noto Sans" font-size="14.00">save_to_faiss_db (→ FAISS DB 저장)</text>
</g>
<!-- B4&#45;&gt;B5 -->
<g id="edge9" class="edge">
<title>B4&#45;&gt;B5</title>
<path fill="none" stroke="black" d="M1884.36,-34C1893.02,-34 1901.86,-34 1910.72,-34"/>
<polygon fill="black" stroke="black" points="1910.73,-37.5 1920.73,-34 1910.73,-30.5 1910.73,-37.5"/>
</g>
<!-- C1 -->
<g id="node12" class="node">
<title>C1</title>
<polygon fill="lightyellow" stroke="lightyellow" points="2463,-52 2320,-52 2320,-16 2463,-16 2463,-52"/>
<text text-anchor="middle" x="2391.5" y="-30.3" font-family="Noto Sans" font-size="14.00">recommend_cards</text>
</g>
<!-- B5&#45;&gt;C1 -->
<g id="edge21" class="edge">
<title>B5&#45;&gt;C1</title>
<path fill="none" stroke="black" stroke-dasharray="5,2" d="M2182.21,-34C2225.11,-34 2271.58,-34 2309.72,-34"/>
<polygon fill="black" stroke="black" points="2309.73,-37.5 2319.73,-34 2309.73,-30.5 2309.73,-37.5"/>
<text text-anchor="middle" x="2251" y="-37.8" font-family="Times,serif" font-size="14.00">FAISS DB 로드</text>
</g>
<!-- C2 -->
<g id="node13" class="node">
<title>C2</title>
<polygon fill="lightyellow" stroke="lightyellow" points="2681,-52 2500,-52 2500,-16 2681,-16 2681,-52"/>
<text text-anchor="middle" x="2590.5" y="-30.3" font-family="Noto Sans" font-size="14.00">retrieve_and_filter_docs</text>
</g>
<!-- C1&#45;&gt;C2 -->
<g id="edge10" class="edge">
<title>C1&#45;&gt;C2</title>
<path fill="none" stroke="black" d="M2463.07,-34C2471.73,-34 2480.71,-34 2489.7,-34"/>
<polygon fill="black" stroke="black" points="2489.84,-37.5 2499.84,-34 2489.84,-30.5 2489.84,-37.5"/>
</g>
<!-- C3 -->
<g id="node14" class="node">
<title>C3</title>
<polygon fill="lightyellow" stroke="lightyellow" points="2903,-52 2718,-52 2718,-16 2903,-16 2903,-52"/>
<text text-anchor="middle" x="2810.5" y="-30.3" font-family="Noto Sans" font-size="14.00">format_docs_for_prompt</text>
</g>
<!-- C2&#45;&gt;C3 -->
<g id="edge11" class="edge">
<title>C2&#45;&gt;C3</title>
<path fill="none" stroke="black" d="M2681.11,-34C2689.9,-34 2698.86,-34 2707.76,-34"/>
<polygon fill="black" stroke="black" points="2707.77,-37.5 2717.77,-34 2707.77,-30.5 2707.77,-37.5"/>
</g>
<!-- C4 -->
<g id="node15" class="node">
<title>C4</title>
<polygon fill="lightyellow" stroke="lightyellow" points="3180,-52 2940,-52 2940,-16 3180,-16 3180,-52"/>
<text text-anchor="middle" x="3060" y="-30.3" font-family="Noto Sans" font-size="14.00">create_recommendation_prompt</text>
</g>
<!-- C3&#45;&gt;C4 -->
<g id="edge12" class="edge">
<title>C3&#45;&gt;C4</title>
<path fill="none" stroke="black" d="M2903.31,-34C2911.9,-34 2920.72,-34 2929.58,-34"/>
<polygon fill="black" stroke="black" points="2929.58,-37.5 2939.58,-34 2929.58,-30.5 2929.58,-37.5"/>
</g>
<!-- C5 -->
<g id="node16" class="node">
<title>C5</title>
<polygon fill="lightyellow" stroke="lightyellow" points="3349,-52 3217,-52 3217,-16 3349,-16 3349,-52"/>
<text text-anchor="middle" x="3283" y="-30.3" font-family="Noto Sans" font-size="14.00">LLM 호출 (GPT&#45;4)</text>
</g>
<!-- C4&#45;&gt;C5 -->
<g id="edge13" class="edge">
<title>C4&#45;&gt;C5</title>
<path fill="none" stroke="black" d="M3180.23,-34C3189.15,-34 3197.98,-34 3206.51,-34"/>
<polygon fill="black" stroke="black" points="3206.74,-37.5 3216.74,-34 3206.74,-30.5 3206.74,-37.5"/>
</g>
<!-- C6 -->
<g id="node17" class="node">
<title>C6</title>
<polygon fill="lightyellow" stroke="lightyellow" points="3515,-52 3386,-52 3386,-16 3515,-16 3515,-52"/>
<text text-anchor="middle" x="3450.5" y="-30.3" font-family="Noto Sans" font-size="14.00">StrOutputParser</text>
</g>
<!-- C5&#45;&gt;C6 -->
<g id="edge14" class="edge">
<title>C5&#45;&gt;C6</title>
<path fill="none" stroke="black" d="M3349.41,-34C3358.05,-34 3366.95,-34 3375.71,-34"/>
<polygon fill="black" stroke="black" points="3375.92,-37.5 3385.92,-34 3375.92,-30.5 3375.92,-37.5"/>
</g>
<!-- D1 -->
<g id="node18" class="node">
<title>D1</title>
<polygon fill="lightyellow" stroke="lightyellow" points="3837,-52 3646,-52 3646,-16 3837,-16 3837,-52"/>
<text text-anchor="middle" x="3741.5" y="-30.3" font-family="Noto Sans" font-size="14.00">evaluate_single_question</text>
</g>
<!-- C6&#45;&gt;D1 -->
<g id="edge22" class="edge">
<title>C6&#45;&gt;D1</title>
<path fill="none" stroke="black" stroke-dasharray="5,2" d="M3515.28,-34C3550.6,-34 3595.4,-34 3635.72,-34"/>
<polygon fill="black" stroke="black" points="3635.87,-37.5 3645.87,-34 3635.87,-30.5 3635.87,-37.5"/>
<text text-anchor="middle" x="3580.5" y="-37.8" font-family="Times,serif" font-size="14.00">추천 응답 전달</text>
</g>
<!-- D2 -->
<g id="node19" class="node">
<title>D2</title>
<polygon fill="lightyellow" stroke="lightyellow" points="4107,-52 3874,-52 3874,-16 4107,-16 4107,-52"/>
<text text-anchor="middle" x="3990.5" y="-30.3" font-family="Noto Sans" font-size="14.00">create_single_question_dataset</text>
</g>
<!-- D1&#45;&gt;D2 -->
<g id="edge15" class="edge">
<title>D1&#45;&gt;D2</title>
<path fill="none" stroke="black" d="M3837.29,-34C3845.99,-34 3854.89,-34 3863.8,-34"/>
<polygon fill="black" stroke="black" points="3863.86,-37.5 3873.86,-34 3863.86,-30.5 3863.86,-37.5"/>
</g>
<!-- D3 -->
<g id="node20" class="node">
<title>D3</title>
<polygon fill="lightyellow" stroke="lightyellow" points="4345,-52 4144,-52 4144,-16 4345,-16 4345,-52"/>
<text text-anchor="middle" x="4244.5" y="-30.3" font-family="Noto Sans" font-size="14.00">recommend_cards (재사용)</text>
</g>
<!-- D2&#45;&gt;D3 -->
<g id="edge16" class="edge">
<title>D2&#45;&gt;D3</title>
<path fill="none" stroke="black" d="M4107.17,-34C4116.01,-34 4124.91,-34 4133.71,-34"/>
<polygon fill="black" stroke="black" points="4133.97,-37.5 4143.97,-34 4133.97,-30.5 4133.97,-37.5"/>
</g>
<!-- D4 -->
<g id="node21" class="node">
<title>D4</title>
<polygon fill="lightyellow" stroke="lightyellow" points="4506,-52 4382,-52 4382,-16 4506,-16 4506,-52"/>
<text text-anchor="middle" x="4444" y="-30.3" font-family="Noto Sans" font-size="14.00">retriever.invoke</text>
</g>
<!-- D3&#45;&gt;D4 -->
<g id="edge17" class="edge">
<title>D3&#45;&gt;D4</title>
<path fill="none" stroke="black" d="M4345.12,-34C4354.14,-34 4363.16,-34 4371.87,-34"/>
<polygon fill="black" stroke="black" points="4371.93,-37.5 4381.93,-34 4371.92,-30.5 4371.93,-37.5"/>
</g>
<!-- D5 -->
<g id="node22" class="node">
<title>D5</title>
<polygon fill="lightyellow" stroke="lightyellow" points="4662,-52 4543,-52 4543,-16 4662,-16 4662,-52"/>
<text text-anchor="middle" x="4602.5" y="-30.3" font-family="Noto Sans" font-size="14.00">ragas.evaluate</text>
</g>
<!-- D4&#45;&gt;D5 -->
<g id="edge18" class="edge">
<title>D4&#45;&gt;D5</title>
<path fill="none" stroke="black" d="M4506.4,-34C4515.02,-34 4523.92,-34 4532.67,-34"/>
<polygon fill="black" stroke="black" points="4532.83,-37.5 4542.83,-34 4532.83,-30.5 4532.83,-37.5"/>
</g>
<!-- D6 -->
<g id="node23" class="node">
<title>D6</title>
<polygon fill="lightyellow" stroke="lightyellow" points="4881,-52 4699,-52 4699,-16 4881,-16 4881,-52"/>
<text text-anchor="middle" x="4790" y="-30.3" font-family="Noto Sans" font-size="14.00">print_evaluation_results</text>
</g>
<!-- D5&#45;&gt;D6 -->
<g id="edge19" class="edge">
<title>D5&#45;&gt;D6</title>
<path fill="none" stroke="black" d="M4662.19,-34C4670.68,-34 4679.6,-34 4688.62,-34"/>
<polygon fill="black" stroke="black" points="4688.83,-37.5 4698.83,-34 4688.83,-30.5 4688.83,-37.5"/>
</g>
</g>
</svg>
